<svg width="263" height="73" viewBox="0 0 263 73" fill="none" xmlns="http://www.w3.org/2000/svg">
<g clip-path="url(#clip0_1_26)">
<path d="M17.8686 45.592H25.1095V26.9061H17.8686V19.3002H41.7232V26.9061H34.477V45.597H41.718V53.2029H17.8686V45.592Z" fill="url(#paint0_linear_1_26)"/>
<path d="M76.0639 53.1976L57.1084 32.877V53.1976H47.6305V19.3H58.1743L77.0248 39.7253V19.3H86.3977V53.2026H76.0639V53.1976Z" fill="url(#paint1_linear_1_26)"/>
<path d="M27.4828 71.0963C27.4828 71.4353 27.4146 71.7243 27.2728 71.9586C27.1311 72.1979 26.9526 72.3923 26.7321 72.5417C26.5114 72.6963 26.2542 72.8059 25.9654 72.8807C25.6765 72.9554 25.3878 72.9903 25.0938 72.9903H17.1702C16.8919 72.9903 16.6084 72.9504 16.3248 72.8707C16.0413 72.791 15.784 72.6713 15.5581 72.5069C15.3324 72.3424 15.1486 72.143 15.0121 71.9037C14.8756 71.6646 14.8021 71.3954 14.8021 71.0913V69.3319H17.8791V70.548H24.4006V64.8611H22.2793V62.4239H27.4828V71.0963Z" fill="url(#paint2_linear_1_26)"/>
<path d="M32.0408 62.4284V70.5526H38.5623V62.4284H41.6394V71.091C41.6394 71.395 41.5658 71.6641 41.424 71.9034C41.277 72.1426 41.0933 72.342 40.8675 72.5064C40.6416 72.671 40.3896 72.7906 40.1114 72.8703C39.8331 72.95 39.5547 72.9899 39.2765 72.9899H31.3476C31.0484 72.9899 30.7544 72.955 30.476 72.8803C30.1977 72.8056 29.9457 72.6959 29.72 72.5413C29.4941 72.3869 29.3156 72.1924 29.1791 71.9581C29.0478 71.719 28.9796 71.4349 28.9796 71.0959V62.4284H32.0408Z" fill="url(#paint3_linear_1_26)"/>
<path d="M52.5665 72.9899L46.2339 66.66V72.9899H43.1358V62.4284H46.3704L52.7345 68.7883V62.4284H55.7957V72.985H52.5665V72.9899Z" fill="url(#paint4_linear_1_26)"/>
<path d="M60.3798 62.4284V72.9849H57.3184V62.4284H60.3798Z" fill="url(#paint5_linear_1_26)"/>
<path d="M61.8708 64.3274C61.8708 63.9884 61.9391 63.6994 62.0703 63.4652C62.2016 63.2259 62.3855 63.0316 62.6112 62.882C62.837 62.7324 63.089 62.6179 63.3674 62.543C63.6456 62.4683 63.9344 62.4334 64.239 62.4334H72.173C72.4514 62.4334 72.7296 62.4733 73.0079 62.553C73.2863 62.6327 73.5383 62.7524 73.764 62.9169C73.9898 63.0813 74.1737 63.2807 74.3207 63.52C74.4677 63.7592 74.5359 64.0283 74.5359 64.3324V71.101C74.5359 71.405 74.4624 71.6742 74.3207 71.9134C74.1737 72.1526 73.9898 72.352 73.764 72.5164C73.5383 72.681 73.2863 72.8006 73.0079 72.8803C72.7296 72.9602 72.4514 73 72.173 73H64.239C63.9396 73 63.6456 72.965 63.3674 72.8903C63.089 72.8156 62.837 72.7059 62.6112 72.5514C62.3855 72.3969 62.2068 72.2024 62.0703 71.9683C61.9391 71.729 61.8708 71.4449 61.8708 71.106V64.3274ZM71.459 70.5527V64.8657H64.9373V70.5527H71.459Z" fill="url(#paint6_linear_1_26)"/>
<path d="M84.8013 66.8294C84.964 66.7846 85.0587 66.7149 85.0797 66.6252V65.0003C85.0587 64.9454 85.0167 64.9006 84.964 64.8757C84.9115 64.8457 84.859 64.8209 84.8013 64.8009H76.0324V62.4334H86.7493C86.9122 62.4334 87.0802 62.4833 87.264 62.578C87.4425 62.6727 87.6105 62.7973 87.7576 62.9419C87.9099 63.0863 88.0306 63.2509 88.1304 63.4253C88.2301 63.5997 88.2774 63.7642 88.2774 63.9237V67.308C88.2774 67.6669 88.1934 67.9809 88.0254 68.24C87.8574 68.4992 87.6367 68.7136 87.3637 68.873C87.0907 69.0374 86.7861 69.1572 86.4396 69.2269C86.0983 69.3017 85.7517 69.3366 85.4052 69.3366L89.422 72.99H85.2319L81.0049 69.3366H79.1461V72.99H76.0324V66.8294H84.8013Z" fill="url(#paint7_linear_1_26)"/>
<path d="M12.7071 59.5027C9.97663 59.5027 8.03382 58.9644 6.87862 57.8829C5.72343 56.8013 5.14584 55.0219 5.14584 52.5397V42.2324C5.14584 40.7221 4.79928 39.6406 4.10617 38.9927C3.41305 38.3447 2.54142 38.0207 1.50174 38.0207H0V34.5817H1.50174C2.54142 34.5817 3.4078 34.2577 4.10092 33.6047C4.79403 32.9519 5.14584 31.8703 5.14584 30.35V19.9929C5.14584 17.5007 5.72343 15.7114 6.87862 14.6249C8.03382 13.5383 9.97663 13 12.7071 13H14.8442V16.4391H13.5157C11.3208 16.4391 10.0291 16.9076 9.64583 17.8447C9.41479 18.3879 9.29926 19.325 9.29926 20.6607V30.8386C9.29926 33.3656 8.08632 35.1699 5.66568 36.2514C8.08632 37.333 9.29926 39.1373 9.29926 41.6643V51.842C9.29926 53.8656 9.66683 55.1067 10.3967 55.5751C10.8955 55.8991 11.9352 56.0636 13.5157 56.0636H14.8442V59.5027H12.7071Z" fill="url(#paint8_linear_1_26)"/>
<path d="M104.219 38.0207H102.775C101.735 38.0207 100.869 38.3447 100.181 38.9927C99.4879 39.6406 99.1414 40.7221 99.1414 42.2324V52.5397C99.1414 55.0219 98.5638 56.8063 97.4087 57.8829C96.2535 58.9644 94.3053 59.5027 91.5697 59.5027H89.3748V56.0636H90.7663C92.5044 56.0636 93.6438 55.8094 94.1845 55.306C94.7254 54.8026 94.9984 53.6463 94.9984 51.842V41.6643C94.9984 39.1373 96.2063 37.333 98.6216 36.2514C96.2063 35.1699 94.9984 33.3656 94.9984 30.8386V20.6607C94.9984 18.677 94.6099 17.431 93.838 16.9276C93.3339 16.6036 92.31 16.4391 90.7663 16.4391H89.3748V13H91.5697C94.3053 13 96.2483 13.5433 97.4087 14.6249C98.5638 15.7114 99.1414 17.5007 99.1414 19.9929V30.35C99.1414 31.8703 99.4879 32.9519 100.181 33.6047C100.874 34.2577 101.735 34.5817 102.775 34.5817H104.219V38.0207Z" fill="url(#paint9_linear_1_26)"/>
</g>
<path d="M159.944 23.872C159.944 24.2987 159.731 24.512 159.304 24.512H136.648C136.477 24.512 136.392 24.5973 136.392 24.768V38.528C136.392 38.6987 136.477 38.784 136.648 38.784H152.2C152.627 38.784 152.84 38.9973 152.84 39.424V43.456C152.84 43.8827 152.627 44.096 152.2 44.096H136.648C136.477 44.096 136.392 44.1813 136.392 44.352V63.36C136.392 63.7867 136.179 64 135.752 64H130.888C130.461 64 130.248 63.7867 130.248 63.36V19.84C130.248 19.4133 130.461 19.2 130.888 19.2H159.304C159.731 19.2 159.944 19.4133 159.944 19.84V23.872ZM189.036 43.648C189.206 45.3973 189.27 47.36 189.228 49.536C189.228 49.9627 189.014 50.176 188.588 50.176H168.172C168.001 50.176 167.916 50.2613 167.916 50.432C167.916 51.8827 168.044 52.992 168.3 53.76C168.769 55.4667 169.708 56.8107 171.116 57.792C172.566 58.7307 174.38 59.2 176.556 59.2C179.713 59.2 182.145 57.8987 183.852 55.296C184.065 54.8693 184.342 54.8053 184.684 55.104L188.332 57.536C188.63 57.792 188.694 58.0693 188.524 58.368C187.329 60.288 185.622 61.8027 183.404 62.912C181.228 64.0213 178.753 64.576 175.98 64.576C172.865 64.576 170.241 63.8933 168.108 62.528C165.974 61.1627 164.374 59.2213 163.308 56.704C162.284 54.1867 161.772 51.136 161.772 47.552C161.772 44.4373 162.006 42.0693 162.476 40.448C163.244 37.504 164.78 35.1787 167.084 33.472C169.388 31.7653 172.182 30.912 175.468 30.912C179.777 30.912 182.998 32 185.132 34.176C187.265 36.3093 188.566 39.4667 189.036 43.648ZM175.468 36.224C173.633 36.224 172.118 36.6933 170.924 37.632C169.729 38.528 168.918 39.744 168.492 41.28C168.193 42.2187 168.001 43.4133 167.916 44.864C167.916 45.0347 168.001 45.12 168.172 45.12H182.828C182.998 45.12 183.084 45.0347 183.084 44.864C182.998 43.456 182.87 42.4107 182.7 41.728C182.273 40.064 181.42 38.7413 180.14 37.76C178.902 36.736 177.345 36.224 175.468 36.224ZM223.348 43.648C223.519 45.3973 223.583 47.36 223.54 49.536C223.54 49.9627 223.327 50.176 222.9 50.176H202.484C202.313 50.176 202.228 50.2613 202.228 50.432C202.228 51.8827 202.356 52.992 202.612 53.76C203.081 55.4667 204.02 56.8107 205.428 57.792C206.879 58.7307 208.692 59.2 210.868 59.2C214.025 59.2 216.457 57.8987 218.164 55.296C218.377 54.8693 218.655 54.8053 218.996 55.104L222.644 57.536C222.943 57.792 223.007 58.0693 222.836 58.368C221.641 60.288 219.935 61.8027 217.716 62.912C215.54 64.0213 213.065 64.576 210.292 64.576C207.177 64.576 204.553 63.8933 202.42 62.528C200.287 61.1627 198.687 59.2213 197.62 56.704C196.596 54.1867 196.084 51.136 196.084 47.552C196.084 44.4373 196.319 42.0693 196.788 40.448C197.556 37.504 199.092 35.1787 201.396 33.472C203.7 31.7653 206.495 30.912 209.78 30.912C214.089 30.912 217.311 32 219.444 34.176C221.577 36.3093 222.879 39.4667 223.348 43.648ZM209.78 36.224C207.945 36.224 206.431 36.6933 205.236 37.632C204.041 38.528 203.231 39.744 202.804 41.28C202.505 42.2187 202.313 43.4133 202.228 44.864C202.228 45.0347 202.313 45.12 202.484 45.12H217.14C217.311 45.12 217.396 45.0347 217.396 44.864C217.311 43.456 217.183 42.4107 217.012 41.728C216.585 40.064 215.732 38.7413 214.452 37.76C213.215 36.736 211.657 36.224 209.78 36.224ZM251.517 19.84C251.517 19.4133 251.73 19.2 252.157 19.2H257.021C257.447 19.2 257.661 19.4133 257.661 19.84V63.36C257.661 63.7867 257.447 64 257.021 64H252.157C251.73 64 251.517 63.7867 251.517 63.36V61.248C251.517 61.1627 251.474 61.0987 251.389 61.056C251.346 61.0133 251.282 61.0347 251.197 61.12C250.258 62.1867 249.149 63.0187 247.869 63.616C246.589 64.2133 245.202 64.512 243.708 64.512C240.637 64.512 238.077 63.7653 236.029 62.272C234.023 60.736 232.551 58.5813 231.613 55.808C230.802 53.5467 230.397 50.816 230.397 47.616C230.397 44.6293 230.738 42.048 231.421 39.872C232.317 37.056 233.789 34.8587 235.837 33.28C237.885 31.7013 240.509 30.912 243.708 30.912C245.159 30.912 246.525 31.2107 247.805 31.808C249.127 32.3627 250.258 33.1733 251.197 34.24C251.282 34.3253 251.346 34.3467 251.389 34.304C251.474 34.2613 251.517 34.1973 251.517 34.112V19.84ZM249.917 55.744C250.898 53.952 251.389 51.264 251.389 47.68C251.389 44.096 250.855 41.3653 249.789 39.488C248.551 37.312 246.738 36.224 244.349 36.224C241.789 36.224 239.89 37.248 238.653 39.296C237.287 41.4293 236.605 44.2453 236.605 47.744C236.605 51.0293 237.138 53.6747 238.205 55.68C239.442 58.0267 241.469 59.2 244.285 59.2C246.759 59.2 248.637 58.048 249.917 55.744Z" fill="#036FDB"/>
<defs>
<linearGradient id="paint0_linear_1_26" x1="103.5" y1="13" x2="14.3128" y2="67.4992" gradientUnits="userSpaceOnUse">
<stop stop-color="#004B96"/>
<stop offset="1" stop-color="#047EF8"/>
</linearGradient>
<linearGradient id="paint1_linear_1_26" x1="103.5" y1="13" x2="14.3128" y2="67.4992" gradientUnits="userSpaceOnUse">
<stop stop-color="#004B96"/>
<stop offset="1" stop-color="#047EF8"/>
</linearGradient>
<linearGradient id="paint2_linear_1_26" x1="103.5" y1="13" x2="14.3128" y2="67.4992" gradientUnits="userSpaceOnUse">
<stop stop-color="#004B96"/>
<stop offset="1" stop-color="#047EF8"/>
</linearGradient>
<linearGradient id="paint3_linear_1_26" x1="103.5" y1="13" x2="14.3128" y2="67.4992" gradientUnits="userSpaceOnUse">
<stop stop-color="#004B96"/>
<stop offset="1" stop-color="#047EF8"/>
</linearGradient>
<linearGradient id="paint4_linear_1_26" x1="103.5" y1="13" x2="14.3128" y2="67.4992" gradientUnits="userSpaceOnUse">
<stop stop-color="#004B96"/>
<stop offset="1" stop-color="#047EF8"/>
</linearGradient>
<linearGradient id="paint5_linear_1_26" x1="103.5" y1="13" x2="14.3128" y2="67.4993" gradientUnits="userSpaceOnUse">
<stop stop-color="#004B96"/>
<stop offset="1" stop-color="#047EF8"/>
</linearGradient>
<linearGradient id="paint6_linear_1_26" x1="103.5" y1="13" x2="14.3128" y2="67.4992" gradientUnits="userSpaceOnUse">
<stop stop-color="#004B96"/>
<stop offset="1" stop-color="#047EF8"/>
</linearGradient>
<linearGradient id="paint7_linear_1_26" x1="103.5" y1="13" x2="14.3128" y2="67.4992" gradientUnits="userSpaceOnUse">
<stop stop-color="#004B96"/>
<stop offset="1" stop-color="#047EF8"/>
</linearGradient>
<linearGradient id="paint8_linear_1_26" x1="103.5" y1="13" x2="14.3128" y2="67.4992" gradientUnits="userSpaceOnUse">
<stop stop-color="#004B96"/>
<stop offset="1" stop-color="#047EF8"/>
</linearGradient>
<linearGradient id="paint9_linear_1_26" x1="103.5" y1="13" x2="14.3128" y2="67.4992" gradientUnits="userSpaceOnUse">
<stop stop-color="#004B96"/>
<stop offset="1" stop-color="#047EF8"/>
</linearGradient>
<clipPath id="clip0_1_26">
<rect width="105" height="60" fill="white" transform="translate(0 13)"/>
</clipPath>
</defs>
</svg>
